#tb 0: 1/25
0,          0,          0,        1,   691200, 0x00000000
0,          1,          1,        1,   691200, 0xc88a6f24
0,          2,          2,        1,   691200, 0x906d474c
